<svg width="460" height="216" viewBox="0 0 460 216" fill="none" xmlns="http://www.w3.org/2000/svg">
<path d="M141.662 190.497H170.583V173.455H176.892V216H170.583V195.979H141.662V216H135.354V173.455H141.662V190.497ZM238.754 216H231.553L226.138 203.606H205.31L199.895 216H193.111L212.332 173.455H219.532L238.754 216ZM261.532 210.518H287.359V216H255.225V173.455H261.532V210.518ZM338.528 178.938H310.679V191.272H337.695V196.754H310.679V210.518H339.124V216H304.371V173.455H338.528V178.938ZM392.092 178.938H376.024V216H369.717V178.938H353.649V173.455H392.092V178.938ZM425.621 192.821L439.725 173.455H447.4L428.656 198.184V216H422.348V198.482L403.722 173.455H411.756L425.621 192.821ZM207.69 198.124H223.817L215.664 179.295L207.69 198.124Z" fill="white"/>
<path d="M57.5508 173.865C62.8402 173.865 66.8601 178.103 66.8604 183.611C66.8602 189.12 63.0518 193.568 57.5508 193.568H57.3398C51.8388 193.568 48.0304 189.12 48.0303 183.611C48.0305 178.315 52.0499 173.865 57.5508 173.865ZM83.7871 173.865C89.2881 173.865 93.3084 178.103 93.3086 183.611C93.3084 189.12 89.4997 193.568 83.7871 193.568H83.5762C78.0751 193.568 74.2668 189.12 74.2666 183.611C74.2668 178.315 78.2863 173.865 83.7871 173.865ZM46.2168 13.6816C47.3305 13.6817 48.4176 14.0241 49.3311 14.6621C50.2443 15.3 50.9405 16.2027 51.3252 17.249L57.8633 34.9238L75.5137 41.4287C76.5635 41.8115 77.4687 42.5117 78.1045 43.4316C78.7402 44.3515 79.0756 45.4459 79.0635 46.5645C79.0704 47.6812 78.7318 48.7734 78.0938 49.6895C77.4557 50.6055 76.5491 51.3004 75.5 51.6797L57.8633 58.2061L51.3662 75.8799C50.9815 76.9264 50.2854 77.8298 49.3721 78.4678C48.4586 79.1058 47.3715 79.4482 46.2578 79.4482C45.144 79.4482 44.0571 79.1058 43.1436 78.4678C42.2301 77.8298 41.5341 76.9265 41.1494 75.8799L37.0586 64.8232C27.54 71.4982 15.6574 83.9013 15.6572 103.104C15.6573 121.959 28.1414 139.12 47.3955 139.12H113.409C90.1351 82.7652 92.039 85.7303 90.7695 81.0693C88.2312 72.5947 95.6368 57.5528 114.679 54.1631C126.95 52.0445 136.895 55.0111 141.338 66.4512L165.035 125.772C168.632 132.976 176.249 139.12 188.944 139.12H192.611C205.518 139.12 212.077 128.315 212.077 113.484V62.8496L229.215 56.917V115.18C229.004 127.225 238.056 138.848 250.911 139.116C264.293 138.99 270.984 128.208 270.984 110.095V21.1123L288.123 14.9688V112.214C288.123 144.84 269.715 153.103 257.02 153.103L257.019 153.1C256.99 153.1 256.961 153.103 256.933 153.103C241.91 153.103 232.177 145.688 225.406 134.247C221.386 145.264 211.653 153.103 198.958 153.103L198.957 153.101C198.935 153.101 198.911 153.103 198.889 153.103H184.078C173.922 153.103 157.207 148.865 149.379 129.586L126.527 75.1377C123.354 66.6637 119.334 64.9687 112.352 67.9346C104.735 71.3243 106.004 77.4684 108.331 83.6123L136.049 153.103H47.3955C25.3908 153.103 0.000101193 137.001 0 103.315C0.000186927 78.5757 15.9516 62.6895 28.5488 55.9717L16.96 51.7012C15.9149 51.316 15.0131 50.6186 14.376 49.7041C13.7388 48.7894 13.3975 47.7002 13.3975 46.585C13.3976 45.4699 13.7389 44.3814 14.376 43.4668C15.0131 42.5522 15.9149 41.8549 16.96 41.4697L34.6113 34.9238L41.1084 17.249C41.4932 16.2027 42.1892 15.3 43.1025 14.6621C44.016 14.0241 45.103 13.6816 46.2168 13.6816ZM322.285 110.095C322.285 128.315 327.575 139.12 341.328 139.12H431.859C432.706 134.883 433.129 130.009 433.129 124.925C433.129 90.6036 412.816 71.1123 382.137 71.1123C371.135 71.1124 362.036 73.4432 355.9 76.4092L351.669 62.4258C356.112 60.3072 366.48 56.917 382.771 56.917C423.184 56.917 451.113 84.4597 451.113 125.561C451.113 130.433 450.69 134.883 450.056 139.12H460L454.075 153.103H337.308C324.824 153.102 305.148 144.84 305.147 112.214V21.1123L322.285 14.9688V110.095ZM84.5342 19.1738C85.2596 19.1738 85.9558 19.462 86.4688 19.9756C86.9818 20.4893 87.2695 21.1866 87.2695 21.9131V24.6523H90.0059C90.7311 24.6525 91.4266 24.9406 91.9395 25.4541C92.4524 25.9677 92.7411 26.6643 92.7412 27.3906C92.7412 28.1171 92.4525 28.8144 91.9395 29.3281C91.4266 29.8415 90.7311 30.1298 90.0059 30.1299H87.2695V32.8691C87.2695 33.5955 86.9816 34.292 86.4688 34.8057C85.9557 35.3193 85.2597 35.6084 84.5342 35.6084C83.8087 35.6083 83.1126 35.3193 82.5996 34.8057C82.0869 34.292 81.7988 33.5954 81.7988 32.8691V30.1299H79.0635C78.338 30.1299 77.6419 29.8418 77.1289 29.3281C76.6159 28.8144 76.3281 28.1171 76.3281 27.3906C76.3282 26.6643 76.616 25.9677 77.1289 25.4541C77.6419 24.9404 78.338 24.6523 79.0635 24.6523H81.7988V21.9131C81.7988 21.1866 82.0866 20.4893 82.5996 19.9756C83.1126 19.4619 83.8087 19.1739 84.5342 19.1738ZM193.246 14.9688C198.747 14.969 202.555 19.2068 202.556 24.7148C202.555 30.2229 198.958 34.6717 193.246 34.6719H193.034C187.745 34.6719 183.725 30.223 183.725 24.7148C183.725 19.4185 187.957 14.9688 193.246 14.9688ZM219.693 14.9688C225.194 14.9688 229.003 19.2066 229.003 24.7148C229.003 30.2229 225.406 34.6717 219.482 34.6719H219.271C213.981 34.6719 209.961 30.223 209.961 24.7148C209.961 19.4186 214.192 14.9689 219.693 14.9688ZM68.1211 0C68.8465 0 69.5427 0.288171 70.0557 0.801758C70.5687 1.31544 70.8564 2.0128 70.8564 2.73926V8.2168H76.3281C77.0534 8.21688 77.7488 8.50604 78.2617 9.01953C78.7747 9.53314 79.0634 10.2297 79.0635 10.9561C79.0635 11.6825 78.7747 12.3799 78.2617 12.8936C77.7488 13.4069 77.0533 13.6952 76.3281 13.6953H70.8564V19.1738C70.8564 19.9002 70.5686 20.5967 70.0557 21.1104C69.5427 21.624 68.8466 21.9131 68.1211 21.9131C67.3957 21.913 66.6995 21.624 66.1865 21.1104C65.6737 20.5967 65.3858 19.9001 65.3857 19.1738V13.6953H59.915C59.1896 13.6953 58.4935 13.4071 57.9805 12.8936C57.4675 12.3799 57.1787 11.6825 57.1787 10.9561C57.1788 10.2297 57.4675 9.53314 57.9805 9.01953C58.4935 8.50586 59.1895 8.2168 59.915 8.2168H65.3857V2.73926C65.3857 2.01281 65.6735 1.31544 66.1865 0.801758C66.6995 0.288113 67.3957 4.41882e-05 68.1211 0Z" fill="white"/>
</svg>
